<svg width="33" height="28" viewBox="0 0 33 28" fill="none" xmlns="http://www.w3.org/2000/svg">
<path d="M11.8169 23.359C11.8169 23.359 11.9412 23.4833 12.1899 23.7319C12.4385 23.9806 12.5628 24.4451 12.5628 25.1256C12.5628 25.8061 12.3142 26.395 11.8169 26.8923C11.3196 27.3895 10.7307 27.6382 10.0503 27.6382C9.36977 27.6382 8.78089 27.3895 8.28361 26.8923C7.78634 26.395 7.5377 25.8061 7.5377 25.1256C7.5377 24.4451 7.78634 23.8562 8.28361 23.359C8.78089 22.8617 9.36977 22.6131 10.0503 22.6131C10.7307 22.6131 11.3196 22.8617 11.8169 23.359ZM29.4049 23.359C29.4049 23.359 29.5292 23.4833 29.7778 23.7319C30.0265 23.9806 30.1508 24.4451 30.1508 25.1256C30.1508 25.8061 29.9021 26.395 29.4049 26.8923C28.9076 27.3895 28.3187 27.6382 27.6382 27.6382C26.9577 27.6382 26.3689 27.3895 25.8716 26.8923C25.3743 26.395 25.1257 25.8061 25.1257 25.1256C25.1257 24.4451 25.3743 23.8562 25.8716 23.359C26.3689 22.8617 26.9577 22.6131 27.6382 22.6131C28.3187 22.6131 28.9076 22.8617 29.4049 23.359ZM32.6633 3.76881V13.8191C32.6633 14.1331 32.5554 14.4112 32.3395 14.6533C32.1235 14.8954 31.8585 15.0361 31.5445 15.0754L11.0514 17.4701C11.2215 18.2553 11.3065 18.7133 11.3065 18.8442C11.3065 19.0536 11.1495 19.4723 10.8354 20.1005H28.8945C29.2347 20.1005 29.5292 20.2248 29.7778 20.4734C30.0265 20.7221 30.1508 21.0165 30.1508 21.3568C30.1508 21.697 30.0265 21.9915 29.7778 22.2401C29.5292 22.4887 29.2347 22.6131 28.8945 22.6131H8.79398C8.45374 22.6131 8.15929 22.4887 7.91066 22.2401C7.66202 21.9915 7.5377 21.697 7.5377 21.3568C7.5377 21.2128 7.59004 21.0067 7.69473 20.7384C7.79942 20.4702 7.90411 20.2346 8.0088 20.0318C8.11349 19.8289 8.25417 19.5672 8.43083 19.2466C8.6075 18.926 8.70892 18.733 8.73509 18.6675L5.26068 2.51253H1.25628C0.916039 2.51253 0.621598 2.38821 0.372959 2.13957C0.12432 1.89093 0 1.59649 0 1.25624C0 0.916002 0.12432 0.621561 0.372959 0.372921C0.621598 0.124281 0.916039 -3.8147e-05 1.25628 -3.8147e-05H6.28141C6.49079 -3.8147e-05 6.67727 0.0424919 6.84085 0.127554C7.00443 0.212614 7.13202 0.314034 7.22363 0.431808C7.31523 0.549585 7.40029 0.709892 7.47881 0.912729C7.55733 1.11557 7.60967 1.28569 7.63584 1.42309C7.66202 1.5605 7.698 1.75352 7.7438 2.00216C7.78961 2.2508 7.81905 2.42092 7.83214 2.51253H31.4071C31.7473 2.51253 32.0418 2.63685 32.2904 2.88549C32.539 3.13413 32.6633 3.42857 32.6633 3.76881Z" fill="white"/>
</svg>
