<svg width="244" height="160" viewBox="0 0 244 160" fill="none" xmlns="http://www.w3.org/2000/svg">
<g clipPath="url(#clip0_934_13757)">
<path d="M244.001 85.2698C243.522 89.6994 243.005 94.1135 242.581 98.5432C241.809 106.473 241.37 114.442 240.351 122.341C239.047 132.454 231.386 139.06 221.264 139.06C219.073 139.06 218.178 139.687 217.514 141.809C215.77 147.064 212.435 151.641 207.975 154.902C203.514 158.163 198.151 159.945 192.633 160C181.762 160.116 172.095 153.596 168.662 143.343C167.667 140.369 166.586 138.975 163.261 138.619C160.43 138.324 157.768 136.45 154.705 135.142C150.778 138.464 145.648 139.199 140.17 139.161C124.207 139.045 108.244 139.161 92.2817 139.06C89.9671 139.06 88.887 139.556 88.1001 141.949C84.7902 152.016 75.2852 159.357 65.2863 159.915C54.1302 160.527 45.7746 155.965 40.4126 146.076C39.6966 144.925 39.1971 143.652 38.939 142.32C38.5764 139.393 37.0333 139.045 34.4102 139.052C23.7632 139.091 17.0356 131.928 17.6528 121.241C17.9923 115.278 18.7329 109.346 19.2884 103.391C19.3656 102.547 19.435 101.695 19.5276 100.603C17.7608 100.603 16.1869 100.642 14.613 100.603C11.2801 100.495 8.9964 98.2799 8.95011 95.0893C8.91911 94.3268 9.03832 93.5657 9.30089 92.8495C9.56347 92.1334 9.96426 91.4763 10.4803 90.9159C10.9963 90.3555 11.6175 89.9028 12.3081 89.5837C12.9987 89.2647 13.7453 89.0856 14.505 89.0567C15.3768 89.0025 16.2564 89.0567 17.1282 89.0567C40.9526 89.0567 64.7797 89.0567 88.6093 89.0567C90.0342 89.093 91.4578 88.9446 92.8449 88.6153C94.9275 88.0155 96.7173 86.6672 97.8727 84.8275C99.0282 82.9879 99.4685 80.7856 99.1096 78.6409C98.5078 74.614 95.0669 71.7719 90.6229 71.7642C71.5562 71.7642 52.4945 71.7642 33.4381 71.7642C32.485 71.7916 31.5312 71.7527 30.5835 71.648C29.263 71.5326 28.0309 70.9338 27.1218 69.9656C26.2127 68.9974 25.6901 67.7275 25.6535 66.3976C25.5572 65.0255 25.9565 63.6645 26.7783 62.5638C27.6 61.463 28.7893 60.6962 30.1283 60.4037C31.2985 60.1887 32.488 60.0979 33.6772 60.1326C52.816 60.1326 71.9573 60.1326 91.1013 60.1326C92.5265 60.1935 93.9538 60.0817 95.3523 59.7996C97.3687 59.238 99.1238 57.982 100.31 56.2518C101.496 54.5215 102.038 52.4274 101.841 50.3364C101.231 45.7906 97.8443 42.8246 93.1689 42.8246C72.1219 42.8246 51.0749 42.8246 30.028 42.8246C21.927 42.8246 13.8261 42.8246 5.72517 42.8246C2.54652 42.8246 0.324547 40.7492 0.0468009 37.8297C-0.0797528 36.3847 0.333413 34.944 1.20602 33.7876C2.07862 32.6312 3.34835 31.8417 4.76849 31.5725C5.38975 31.4571 6.01931 31.3924 6.65099 31.3789C7.3685 31.3789 8.08601 31.3789 8.79581 31.3789H95.2906C99.8271 31.3789 102.867 29.3113 104.07 25.4934C104.412 24.4697 104.537 23.3856 104.436 22.3107C104.336 21.2357 104.013 20.1937 103.488 19.2516C102.962 18.3094 102.247 17.4879 101.386 16.8398C100.526 16.1917 99.5404 15.7313 98.4924 15.4881C97.2515 15.2336 95.9858 15.1219 94.7197 15.1551C73.4309 15.1551 52.1448 15.1551 30.8612 15.1551H27.8214C28.2843 11.469 28.5929 8.06931 29.1793 4.70839C29.4014 3.46423 30.033 2.33087 30.973 1.48983C31.9131 0.648785 33.1071 0.148711 34.3639 0.0696965C34.9965 0 35.6369 0 36.2618 0C75.7326 0 115.206 0.0258135 154.682 0.0774406C157.681 0.0622634 160.644 0.723913 163.354 2.01346C169.372 5.11108 172.064 10.439 171.663 17.1763C171.416 21.149 170.799 25.0908 170.305 29.3732C171.277 29.4197 172.188 29.4971 173.098 29.4971C184.532 29.4971 195.974 29.5746 207.407 29.4971C211.01 29.4584 213.286 30.7981 214.945 34.0816C221.827 47.7189 228.902 61.2555 235.861 74.8541C236.494 76.0931 237.142 76.8056 238.677 76.8443C241.377 76.8985 242.882 78.7493 243.993 80.9874L244.001 85.2698ZM169.21 41.2836C168.724 46.4798 168.245 51.467 167.79 56.4542C166.072 75.4942 164.359 94.5395 162.652 113.59C162.374 116.765 162.073 119.94 162.019 123.123C162.019 125.338 163.716 126.871 165.8 127.421C168.369 128.102 168.392 126.073 169.009 124.672C173.036 115.526 179.88 109.818 189.724 108.27C199.569 106.721 207.647 109.966 213.711 117.795C215.848 120.567 217.159 123.99 218.973 127.343C225.816 128.257 228.732 125.849 229.249 118.585C229.581 113.938 230.09 109.222 230.499 104.537C230.97 99.2401 231.417 93.9432 231.895 88.352H228.809C218.564 88.352 208.31 88.5378 198.08 88.1893C195.986 88.1051 193.932 87.5955 192.04 86.6914C190.149 85.7873 188.46 84.5075 187.075 82.9294C185.69 81.3513 184.639 79.5077 183.984 77.5101C183.33 75.5124 183.086 73.4023 183.267 71.3073C183.652 65.7471 184.239 60.1946 184.725 54.6421C185.111 50.2357 185.496 45.8216 185.874 41.2836H169.21ZM63.2649 148.43C67.1975 148.41 70.9629 146.831 73.7415 144.038C76.5201 141.245 78.087 137.463 78.1012 133.515C78.0973 131.659 77.7263 129.822 77.0098 128.111C76.2933 126.4 75.2455 124.848 73.9272 123.547C72.6088 122.245 71.0462 121.219 69.3298 120.528C67.6134 119.837 65.7775 119.495 63.9284 119.522C60.0364 119.57 56.3173 121.143 53.5643 123.905C50.8113 126.666 49.2425 130.399 49.1924 134.305C49.1874 136.162 49.5479 138.001 50.2533 139.717C50.9587 141.433 51.9951 142.992 53.3028 144.305C54.6106 145.617 56.1639 146.658 57.8736 147.366C59.5832 148.074 61.4155 148.435 63.2649 148.43ZM207.4 133.539C207.411 131.683 207.054 129.844 206.348 128.129C205.642 126.414 204.602 124.858 203.289 123.552C201.976 122.246 200.417 121.216 198.702 120.522C196.988 119.829 195.152 119.486 193.304 119.514C191.359 119.529 189.435 119.93 187.645 120.693C185.854 121.456 184.231 122.567 182.869 123.962C181.507 125.356 180.432 127.007 179.708 128.819C178.983 130.631 178.622 132.569 178.645 134.522C178.645 136.36 179.007 138.179 179.71 139.876C180.414 141.573 181.444 143.113 182.743 144.409C184.041 145.704 185.582 146.729 187.277 147.425C188.972 148.12 190.787 148.473 192.617 148.461C194.566 148.46 196.495 148.073 198.294 147.322C200.093 146.571 201.726 145.47 203.101 144.084C204.475 142.697 205.563 141.052 206.302 139.242C207.041 137.433 207.417 135.494 207.407 133.539H207.4Z" fill="#0A8B6A"/>
</g>
<defs>
<clipPath id="clip0_934_13757">
<rect width="244" height="160" fill="white"/>
</clipPath>
</defs>
</svg>
