<svg width="218" height="182" viewBox="0 0 218 182" fill="none" xmlns="http://www.w3.org/2000/svg">
<path fill-rule="evenodd" clip-rule="evenodd" d="M21.0161 19.7907C14.6118 25.7625 10.4851 35.3228 10.4851 49.9202V102.092C10.4851 112.637 12.637 120.525 16.1854 126.3C19.6945 132.01 24.7869 136.013 31.3671 138.485C33.3625 139.212 35.4454 139.813 37.545 140.151C37.6531 140.168 37.7607 140.189 37.8675 140.213C41.4493 141.022 45.3907 141.401 49.6292 141.401H138.302C150.814 141.401 160.44 138.259 166.915 132.222C173.319 126.25 177.446 116.69 177.446 102.092V49.9202C177.446 45.5739 176.99 41.7547 176.324 37.92C174.381 28.1329 169.916 21.5118 163.757 17.2377C157.471 12.8761 148.912 10.6113 138.302 10.6113H49.6292C37.1168 10.6113 27.4907 13.7533 21.0161 19.7907ZM13.8816 12.0749C22.9423 3.62596 35.5096 0.0820312 49.6292 0.0820312H138.302C150.288 0.0820312 161.148 2.62913 169.717 8.57528C178.4 14.6006 184.22 23.7655 186.621 35.9302C186.628 35.9688 186.635 36.0074 186.642 36.046C187.383 40.2959 187.931 44.7662 187.931 49.9202V102.092C187.931 118.696 183.181 131.423 174.049 139.937C164.989 148.386 152.421 151.93 138.302 151.93H49.6292C44.8455 151.93 40.1657 151.51 35.7242 150.521C32.849 150.046 30.1542 149.245 27.7628 148.372L27.7208 148.357C19.1793 145.154 12.1228 139.738 7.26259 131.829C2.43807 123.978 0 114.037 0 102.092V49.9202C0 33.3159 4.75052 20.5894 13.8816 12.0749Z" fill="#0A8B6A"/>
<path fill-rule="evenodd" clip-rule="evenodd" d="M177.649 33.1838C178.9 31.9349 180.693 31.4023 182.419 31.7671C192.944 33.9915 201.999 38.9361 208.372 47.2207C214.723 55.4761 218 66.5133 218 80.184V132.256C218 148.829 213.257 161.531 204.14 170.029C195.094 178.462 182.546 181.999 168.449 181.999H79.9151C72.0233 181.999 64.6196 180.933 58.0374 178.431C44.2685 173.314 34.9284 162.576 31.6727 146.121C31.3276 144.377 31.8844 142.577 33.1524 141.335C34.4205 140.094 36.2278 139.581 37.9556 139.971C41.5318 140.779 45.467 141.157 49.6989 141.157H138.232C150.725 141.157 160.336 138.021 166.801 131.995C173.195 126.035 177.315 116.493 177.315 101.923V49.8508C177.315 45.3999 176.938 41.512 176.213 37.9648C175.859 36.2301 176.399 34.4328 177.649 33.1838ZM187.597 44.2861C187.722 46.0832 187.784 47.9347 187.784 49.8508V101.923C187.784 118.496 183.041 131.198 173.924 139.696C164.877 148.129 152.33 151.666 138.232 151.666H49.6989C47.8072 151.666 45.9317 151.6 44.0809 151.459C47.5275 160.123 53.5904 165.576 61.687 168.581L61.7281 168.597C66.824 170.537 72.9089 171.49 79.9151 171.49H168.449C180.941 171.49 190.552 168.354 197.017 162.328C203.411 156.368 207.531 146.826 207.531 132.256V80.184C207.531 68.1725 204.664 59.5945 200.087 53.644C196.922 49.5299 192.742 46.4148 187.597 44.2861Z" fill="#0A8B6A"/>
<path fill-rule="evenodd" clip-rule="evenodd" d="M36.8343 48.1924C39.7405 48.1924 42.0964 50.5719 42.0964 53.5071V98.5053C42.0964 101.44 39.7405 103.82 36.8343 103.82C33.9282 103.82 31.5723 101.44 31.5723 98.5053V53.5071C31.5723 50.5719 33.9282 48.1924 36.8343 48.1924Z" fill="#0A8B6A"/>
<path fill-rule="evenodd" clip-rule="evenodd" d="M151.097 48.1924C154.003 48.1924 156.359 50.5719 156.359 53.5071V98.5053C156.359 101.44 154.003 103.82 151.097 103.82C148.191 103.82 145.835 101.44 145.835 98.5053V53.5071C145.835 50.5719 148.191 48.1924 151.097 48.1924Z" fill="#0A8B6A"/>
</svg>
