<svg width="200" height="181" viewBox="0 0 200 181" fill="none" xmlns="http://www.w3.org/2000/svg">
<path fill-rule="evenodd" clip-rule="evenodd" d="M0 96.2899C0 93.6175 2.16637 91.4512 4.83872 91.4512H166.613C169.286 91.4512 171.452 93.6175 171.452 96.2899C171.452 98.9622 169.286 101.129 166.613 101.129H4.83872C2.16637 101.129 0 98.9622 0 96.2899Z" fill="#0A8B6A"/>
<path fill-rule="evenodd" clip-rule="evenodd" d="M33.6311 43.644C22.7164 44.2938 17.4217 46.5812 14.4476 50.3338C11.2564 54.3601 9.67744 61.3034 9.67744 74.1162V140.634C9.67744 154.833 11.6035 161.78 15.446 165.572C19.3108 169.386 26.4045 171.291 40.81 171.291H130.642C144.806 171.291 151.899 169.463 155.804 165.789C159.622 162.197 161.63 155.637 161.775 142.132V74.1162C161.775 59.9175 159.848 52.9701 156.006 49.1785C152.141 45.3647 145.047 43.4597 130.642 43.4597H40.81C38.2703 43.4597 35.8967 43.5497 33.6311 43.644ZM33.1857 33.9767C35.4751 33.8814 38.0366 33.7822 40.81 33.7822H130.642C144.975 33.7822 155.867 35.4457 162.803 42.2901C169.762 49.1565 171.452 59.9567 171.452 74.1162V142.157L171.452 142.208C171.309 155.806 169.462 166.226 162.435 172.838C155.491 179.37 144.741 180.968 130.642 180.968H40.81C26.4768 180.968 15.5848 179.305 8.64871 172.46C1.69018 165.594 0 154.794 0 140.634V74.1162C0 61.2354 1.41867 51.1923 6.86337 44.3227C12.5213 37.184 21.4912 34.6668 33.1018 33.981C33.1298 33.9793 33.1578 33.9779 33.1857 33.9767Z" fill="#0A8B6A"/>
<path fill-rule="evenodd" clip-rule="evenodd" d="M38.3818 33.8061C39.171 33.7912 39.9808 33.7823 40.8094 33.7823H130.641C144.975 33.7823 155.867 35.4458 162.803 42.2902C169.761 49.1566 171.451 59.9568 171.451 74.1163V136.853C179.012 135.857 183.082 133.751 185.552 130.634C188.743 126.608 190.322 119.665 190.322 106.852V40.334C190.322 26.1353 188.396 19.1879 184.554 15.3962C180.689 11.5825 173.595 9.67744 159.19 9.67744H69.3579C55.1943 9.67744 48.1009 11.5055 44.1962 15.1789C40.8857 18.2933 38.9362 23.6387 38.3818 33.8061ZM37.5651 8.1304C44.509 1.59774 55.2586 0 69.3579 0H159.19C173.523 0 184.415 1.66348 191.351 8.50784C198.31 15.3743 200 26.1745 200 40.334V106.852C200 119.733 198.581 129.776 193.136 136.645C187.479 143.784 178.509 146.301 166.898 146.987C165.567 147.066 164.263 146.592 163.294 145.678C162.324 144.763 161.774 143.49 161.774 142.157V74.1163C161.774 59.9176 159.848 52.9702 156.005 49.1786C152.141 45.3648 145.047 43.4598 130.641 43.4598H40.8094C38.2539 43.4598 35.8664 43.551 33.588 43.6459C32.2621 43.7011 30.9716 43.2094 30.0187 42.2857C29.0658 41.362 28.5342 40.0875 28.5481 38.7604C28.6913 25.1616 30.5375 14.7419 37.5651 8.1304Z" fill="#0A8B6A"/>
<path fill-rule="evenodd" clip-rule="evenodd" d="M30.9268 145.772C30.9268 143.1 33.0931 140.934 35.7655 140.934H52.133C54.8053 140.934 56.9717 143.1 56.9717 145.772C56.9717 148.445 54.8053 150.611 52.133 150.611H35.7655C33.0931 150.611 30.9268 148.445 30.9268 145.772Z" fill="#0A8B6A"/>
<path fill-rule="evenodd" clip-rule="evenodd" d="M67.6602 145.772C67.6602 143.1 69.8265 140.934 72.4989 140.934H105.234C107.907 140.934 110.073 143.1 110.073 145.772C110.073 148.445 107.907 150.611 105.234 150.611H72.4989C69.8265 150.611 67.6602 148.445 67.6602 145.772Z" fill="#0A8B6A"/>
<path d="M33.8656 65.0222C33.8656 66.5377 33.343 67.8006 32.2979 68.811C31.2701 69.8039 29.6937 70.3003 27.5685 70.3003H24.0672V77.9039H21.6895V59.6919H27.5685C29.624 59.6919 31.183 60.1884 32.2456 61.1813C33.3256 62.1742 33.8656 63.4545 33.8656 65.0222ZM27.5685 68.3406C28.8924 68.3406 29.8679 68.0532 30.495 67.4784C31.1221 66.9035 31.4356 66.0848 31.4356 65.0222C31.4356 62.7751 30.1466 61.6516 27.5685 61.6516H24.0672V68.3406H27.5685Z" fill="#0A8B6A"/>
<path d="M35.9325 70.6923C35.9325 69.229 36.2286 67.9487 36.8208 66.8513C37.4131 65.7364 38.2231 64.8742 39.2509 64.2645C40.296 63.6548 41.4544 63.35 42.726 63.35C43.9802 63.35 45.0689 63.62 45.9922 64.16C46.9154 64.7 47.6035 65.3793 48.0564 66.1981V63.5851H50.4602V77.9039H48.0564V75.2387C47.586 76.0748 46.8805 76.7716 45.9399 77.329C45.0167 77.869 43.9367 78.139 42.6999 78.139C41.4283 78.139 40.2786 77.8255 39.2509 77.1984C38.2231 76.5713 37.4131 75.6916 36.8208 74.5594C36.2286 73.4271 35.9325 72.1381 35.9325 70.6923ZM48.0564 70.7184C48.0564 69.6384 47.8386 68.6977 47.4031 67.8964C46.9676 67.0952 46.3754 66.4855 45.6264 66.0674C44.8947 65.6319 44.0847 65.4142 43.1963 65.4142C42.308 65.4142 41.498 65.6232 40.7663 66.0413C40.0347 66.4593 39.4512 67.069 39.0157 67.8703C38.5802 68.6716 38.3625 69.6123 38.3625 70.6923C38.3625 71.7897 38.5802 72.7477 39.0157 73.5665C39.4512 74.3677 40.0347 74.9861 40.7663 75.4216C41.498 75.8397 42.308 76.0487 43.1963 76.0487C44.0847 76.0487 44.8947 75.8397 45.6264 75.4216C46.3754 74.9861 46.9676 74.3677 47.4031 73.5665C47.8386 72.7477 48.0564 71.7984 48.0564 70.7184Z" fill="#0A8B6A"/>
<path d="M66.8113 63.5851L58.1887 84.6452H55.7326L58.5545 77.7471L52.78 63.5851H55.419L59.9132 75.1865L64.3552 63.5851H66.8113Z" fill="#0A8B6A"/>
<path d="M77.197 77.9039L71.5793 71.5806V77.9039H69.2015V58.5684H71.5793V69.9345L77.0925 63.5851H80.4109L73.6696 70.7184L80.437 77.9039H77.197Z" fill="#0A8B6A"/>
<path d="M95.7134 70.1958C95.7134 70.6487 95.6872 71.1277 95.635 71.6329H84.1904C84.2775 73.0439 84.7566 74.15 85.6275 74.9513C86.5159 75.7352 87.5872 76.1271 88.8414 76.1271C89.8691 76.1271 90.7227 75.8919 91.4021 75.4216C92.0988 74.9339 92.5866 74.2894 92.8653 73.4881H95.4259C95.0427 74.8642 94.2763 75.9878 93.1266 76.8587C91.9769 77.7123 90.5485 78.139 88.8414 78.139C87.4827 78.139 86.2633 77.8342 85.1833 77.2245C84.1208 76.6148 83.2846 75.7526 82.675 74.6377C82.0653 73.5055 81.7604 72.199 81.7604 70.7184C81.7604 69.2377 82.0566 67.94 82.6488 66.8252C83.2411 65.7103 84.0685 64.8568 85.1311 64.2645C86.2111 63.6548 87.4479 63.35 88.8414 63.35C90.2001 63.35 91.4021 63.6461 92.4472 64.2384C93.4924 64.8306 94.2937 65.6493 94.8511 66.6945C95.4259 67.7222 95.7134 68.8893 95.7134 70.1958ZM93.2572 69.6994C93.2572 68.7935 93.0569 68.0184 92.6563 67.3739C92.2556 66.7119 91.7069 66.2155 91.0101 65.8845C90.3308 65.5361 89.573 65.3619 88.7369 65.3619C87.535 65.3619 86.5072 65.7451 85.6537 66.5116C84.8175 67.2781 84.3385 68.3406 84.2166 69.6994H93.2572Z" fill="#0A8B6A"/>
<path d="M111.916 70.1958C111.916 70.6487 111.89 71.1277 111.838 71.6329H100.394C100.481 73.0439 100.96 74.15 101.831 74.9513C102.719 75.7352 103.79 76.1271 105.045 76.1271C106.072 76.1271 106.926 75.8919 107.605 75.4216C108.302 74.9339 108.79 74.2894 109.068 73.4881H111.629C111.246 74.8642 110.479 75.9878 109.33 76.8587C108.18 77.7123 106.752 78.139 105.045 78.139C103.686 78.139 102.466 77.8342 101.386 77.2245C100.324 76.6148 99.4877 75.7526 98.878 74.6377C98.2684 73.5055 97.9635 72.199 97.9635 70.7184C97.9635 69.2377 98.2597 67.94 98.8519 66.8252C99.4442 65.7103 100.272 64.8568 101.334 64.2645C102.414 63.6548 103.651 63.35 105.045 63.35C106.403 63.35 107.605 63.6461 108.65 64.2384C109.695 64.8306 110.497 65.6493 111.054 66.6945C111.629 67.7222 111.916 68.8893 111.916 70.1958ZM109.46 69.6994C109.46 68.7935 109.26 68.0184 108.859 67.3739C108.459 66.7119 107.91 66.2155 107.213 65.8845C106.534 65.5361 105.776 65.3619 104.94 65.3619C103.738 65.3619 102.71 65.7451 101.857 66.5116C101.021 67.2781 100.542 68.3406 100.42 69.6994H109.46Z" fill="#0A8B6A"/>
<path d="M117.433 66.2242C117.903 65.4055 118.6 64.7261 119.523 64.1861C120.464 63.6287 121.552 63.35 122.789 63.35C124.061 63.35 125.211 63.6548 126.238 64.2645C127.283 64.8742 128.102 65.7364 128.694 66.8513C129.287 67.9487 129.583 69.229 129.583 70.6923C129.583 72.1381 129.287 73.4271 128.694 74.5594C128.102 75.6916 127.283 76.5713 126.238 77.1984C125.211 77.8255 124.061 78.139 122.789 78.139C121.57 78.139 120.49 77.869 119.549 77.329C118.626 76.7716 117.921 76.0836 117.433 75.2648V84.6974H115.055V63.5851H117.433V66.2242ZM127.153 70.6923C127.153 69.6123 126.935 68.6716 126.5 67.8703C126.064 67.069 125.472 66.4593 124.723 66.0413C123.991 65.6232 123.181 65.4142 122.293 65.4142C121.422 65.4142 120.612 65.6319 119.863 66.0674C119.131 66.4855 118.539 67.1039 118.086 67.9226C117.65 68.7239 117.433 69.6558 117.433 70.7184C117.433 71.7984 117.65 72.7477 118.086 73.5665C118.539 74.3677 119.131 74.9861 119.863 75.4216C120.612 75.8397 121.422 76.0487 122.293 76.0487C123.181 76.0487 123.991 75.8397 124.723 75.4216C125.472 74.9861 126.064 74.3677 126.5 73.5665C126.935 72.7477 127.153 71.7897 127.153 70.6923Z" fill="#0A8B6A"/>
<path d="M145.777 70.1958C145.777 70.6487 145.751 71.1277 145.699 71.6329H134.254C134.341 73.0439 134.82 74.15 135.691 74.9513C136.58 75.7352 137.651 76.1271 138.905 76.1271C139.933 76.1271 140.786 75.8919 141.466 75.4216C142.163 74.9339 142.65 74.2894 142.929 73.4881H145.49C145.106 74.8642 144.34 75.9878 143.19 76.8587C142.041 77.7123 140.612 78.139 138.905 78.139C137.546 78.139 136.327 77.8342 135.247 77.2245C134.184 76.6148 133.348 75.7526 132.739 74.6377C132.129 73.5055 131.824 72.199 131.824 70.7184C131.824 69.2377 132.12 67.94 132.713 66.8252C133.305 65.7103 134.132 64.8568 135.195 64.2645C136.275 63.6548 137.512 63.35 138.905 63.35C140.264 63.35 141.466 63.6461 142.511 64.2384C143.556 64.8306 144.357 65.6493 144.915 66.6945C145.49 67.7222 145.777 68.8893 145.777 70.1958ZM143.321 69.6994C143.321 68.7935 143.121 68.0184 142.72 67.3739C142.319 66.7119 141.771 66.2155 141.074 65.8845C140.395 65.5361 139.637 65.3619 138.801 65.3619C137.599 65.3619 136.571 65.7451 135.717 66.5116C134.881 67.2781 134.402 68.3406 134.28 69.6994H143.321Z" fill="#0A8B6A"/>
<path d="M151.293 65.9106C151.711 65.0919 152.304 64.4561 153.07 64.0032C153.854 63.5503 154.803 63.3239 155.918 63.3239V65.78H155.291C152.626 65.78 151.293 67.2258 151.293 70.1174V77.9039H148.916V63.5851H151.293V65.9106Z" fill="#0A8B6A"/>
</svg>
