<svg width="176" height="54" viewBox="0 0 176 54" fill="none" xmlns="http://www.w3.org/2000/svg">
<path fill-rule="evenodd" clip-rule="evenodd" d="M12.4503 24.842L21.8873 12.421L12.4503 0C14.8096 0 17.1455 0 19.5047 0L28.9417 12.421L19.5047 24.842C17.1455 24.842 14.7862 24.842 12.4503 24.842ZM0 24.842L9.43701 12.421L0 0C2.35925 0 4.69515 0 7.05441 0L16.4914 12.421L7.05441 24.842C4.71851 24.842 2.35925 24.842 0 24.842Z" fill="white"/>
<path fill-rule="evenodd" clip-rule="evenodd" d="M89.7572 50.1314C91.5792 50.1314 93.0041 48.9323 93.0041 46.5342C93.0041 44.4128 91.5558 43.6749 90.2944 43.1521C90.2477 43.1216 90.1776 43.1216 90.1309 43.0908C89.1732 42.691 88.3323 42.322 88.3323 41.5535C88.3323 40.8464 88.7761 40.3545 89.5469 40.3545C90.271 40.3545 91.1586 40.7542 91.9997 41.4306L92.7938 39.5552C91.8594 38.7556 90.6681 38.2637 89.5936 38.2637C87.8651 38.2637 86.4868 39.5858 86.4868 41.7687C86.4868 44.013 87.9352 44.6896 89.22 45.2121C89.2665 45.2429 89.3133 45.2429 89.3601 45.2737C90.3177 45.6427 91.1586 45.95 91.1586 46.7801C91.1586 47.5794 90.6681 48.0714 89.8038 48.0714C88.9161 48.0714 87.8884 47.5794 86.954 46.6571L86.0664 48.4403C87.1409 49.5472 88.5192 50.1314 89.7572 50.1314ZM99.0072 50.1622C100.619 50.1622 101.74 49.3013 102.581 48.01L101.413 46.6263C100.712 47.5181 100.035 48.01 99.054 48.01C97.7692 48.01 96.7648 46.9645 96.5546 45.0891H102.955C102.978 44.9661 102.978 44.5358 102.978 44.3512C102.978 41.0616 101.577 38.1715 98.7971 38.1715C96.2976 38.1715 94.5458 40.8772 94.5458 44.136C94.5458 47.764 96.4846 50.1622 99.0072 50.1622ZM96.5312 43.3675C96.6947 41.5843 97.5591 40.3237 98.7736 40.3237C100.105 40.3237 100.853 41.6457 100.993 43.3367H96.5312V43.3675ZM109.028 50.1622C110.733 50.1622 111.738 49.2704 112.602 48.01L111.388 46.442C110.757 47.3029 110.056 47.887 109.122 47.887C107.58 47.887 106.505 46.2268 106.505 44.1976C106.505 42.1377 107.557 40.5083 109.005 40.5083C110.009 40.5083 110.663 41.0924 111.271 41.9533L112.509 40.2007C111.691 39.0324 110.663 38.2331 109.028 38.2331C106.412 38.2331 104.497 40.9694 104.497 44.2282C104.52 47.4873 106.435 50.1622 109.028 50.1622ZM117.438 50.1314C118.792 50.1314 119.61 49.2091 120.171 48.1022V49.8854H122.179V38.4175H120.171V44.9048C120.171 46.688 119.353 47.764 118.208 47.764C117.017 47.764 116.34 46.7493 116.34 44.9661V38.4483H114.331V45.7657C114.331 48.4095 115.475 50.1314 117.438 50.1314ZM124.679 49.9162H126.688V45.5503C126.688 42.5066 127.902 41.0002 129.654 41.0002H129.771V38.2023C128.229 38.1101 127.225 39.2784 126.688 41.0002V38.4175H124.679V49.9162ZM135.19 50.1622C136.802 50.1622 137.923 49.3013 138.764 48.01L137.596 46.6263C136.895 47.5181 136.218 48.01 135.237 48.01C133.952 48.01 132.948 46.9645 132.738 45.0891H139.138C139.161 44.9661 139.161 44.5358 139.161 44.3512C139.161 41.0616 137.76 38.1715 134.98 38.1715C132.481 38.1715 130.729 40.8772 130.729 44.136C130.729 47.764 132.668 50.1622 135.19 50.1622ZM132.691 43.3675C132.878 41.5843 133.742 40.3545 134.957 40.3545C136.288 40.3545 137.036 41.6765 137.176 43.3675H132.691ZM144.767 50.1314C146.192 50.1314 147.103 49.1783 147.734 47.9792V49.8854H149.743V34.021H147.734V40.2007C147.103 39.1246 146.192 38.1715 144.767 38.1715C142.688 38.1715 140.726 40.3237 140.726 44.136C140.726 47.9792 142.735 50.1314 144.767 50.1314ZM145.258 47.8562C143.903 47.8562 142.759 46.4112 142.759 44.1668C142.759 41.8303 143.903 40.4467 145.258 40.4467C146.589 40.4467 147.781 41.8917 147.781 44.136C147.781 46.3804 146.589 47.8562 145.258 47.8562ZM162.147 50.1314C164.225 50.1314 166.211 47.9792 166.211 44.1668C166.211 40.3237 164.202 38.1715 162.147 38.1715C160.745 38.1715 159.834 39.1246 159.18 40.3237V34.021H157.171V49.8854H159.18V48.1022C159.811 49.1783 160.722 50.1314 162.147 50.1314ZM161.703 47.8562C160.348 47.8562 159.157 46.4112 159.157 44.1668C159.157 41.9225 160.348 40.4467 161.703 40.4467C163.057 40.4467 164.202 41.8917 164.202 44.136C164.179 46.442 163.057 47.8562 161.703 47.8562ZM169.645 53.4518C171.046 53.4518 171.817 52.5909 172.518 50.2235L175.998 38.4175H173.919L171.654 46.9339L169.178 38.4175H167.052L170.696 49.8854C170.369 50.8999 170.018 51.2074 169.458 51.2074C169.037 51.2074 168.64 51.0228 168.29 50.7769L167.612 52.7447C168.196 53.175 168.804 53.4518 169.645 53.4518Z" fill="white"/>
<path fill-rule="evenodd" clip-rule="evenodd" d="M56.3049 21.1218C57.0758 21.1218 57.8233 20.845 58.4539 20.3225C59.7387 19.3078 60.4394 17.5246 60.4394 15.557C60.4394 13.5278 59.6919 11.683 58.3371 10.6686C57.7065 10.2074 57.0057 9.96144 56.3049 9.96144C55.5808 9.96144 54.8801 10.2074 54.2493 10.6994C52.9179 11.7138 52.1937 13.5586 52.1937 15.557C52.1937 17.494 52.8712 19.2772 54.1325 20.2917C54.7865 20.845 55.5341 21.1218 56.3049 21.1218ZM37.6879 13.4357V4.48878H41.3318C42.2662 4.48878 43.0605 4.95001 43.7378 5.81092C44.4153 6.6716 44.7422 7.7171 44.7422 8.94674C44.7422 10.1766 44.3918 11.2219 43.7378 12.1136C43.0838 12.9743 42.2662 13.4357 41.3318 13.4357H40.6777H37.6879ZM37.6879 17.8935H40.7012H41.3552C42.2662 17.8935 43.1538 17.6784 43.9949 17.1864C44.8123 16.7253 45.5365 16.0795 46.1438 15.2802C46.7746 14.4501 47.2417 13.497 47.592 12.4518C47.9658 11.3449 48.1294 10.1766 48.1294 8.97755C48.1294 7.77848 47.9658 6.61022 47.592 5.50334C47.2417 4.45804 46.7511 3.50495 46.1438 2.67485C45.5131 1.84472 44.789 1.22983 43.9949 0.768641C43.1538 0.27674 42.2662 0.0615234 41.3552 0.0615234H34.3242V24.8419H37.7112L37.6879 17.8935ZM60.6498 22.659C59.4583 24.3192 57.7766 25.2109 56.048 25.2109C51.9601 25.2109 48.9703 20.8758 48.9703 15.557C48.9703 10.2688 51.9368 5.8723 56.048 5.8723C57.7998 5.8723 59.4583 6.79458 60.6498 8.45479V6.08747H63.8499V24.9957H60.6498V22.659ZM77.4448 22.3824C76.417 24.0118 74.8286 24.7803 73.2167 24.7803C69.0356 24.7803 66.9565 20.968 66.9565 15.7106V6.11827H70.1801V15.4954C70.1801 18.6314 71.1378 20.6914 73.6606 20.6914C76.3703 20.6914 77.4915 18.1395 77.4915 14.8191V6.11827H80.6916V22.3824C80.6916 28.0394 78.0287 31.9439 73.6373 31.9439C71.3714 31.9439 69.199 30.9908 67.4472 29.0541L67.2603 28.8695L69.1289 26.2562L69.2925 26.3792C70.6706 27.486 72.0254 28.0394 73.6373 28.0394C76.0432 28.0394 77.4682 26.3484 77.4682 23.1509V22.3824H77.4448Z" fill="white"/>
<path fill-rule="evenodd" clip-rule="evenodd" d="M135.021 11.1911L135.115 10.9451C135.115 10.9146 135.138 10.8837 135.138 10.8529L135.231 10.607L135.255 10.5456L135.278 10.484L135.325 10.3918C135.348 10.3302 135.395 10.2688 135.418 10.2072L135.442 10.1766C135.465 10.1458 135.465 10.115 135.488 10.0842L135.512 10.0536L135.558 9.96146L135.582 9.93066C135.629 9.83847 135.699 9.71549 135.745 9.62307C135.769 9.5925 135.792 9.56169 135.815 9.53089C137.17 7.22494 139.249 5.87232 141.468 5.87232H141.749C145.766 5.9645 148.663 10.2688 148.663 15.5262C148.663 20.8142 145.696 25.2109 141.585 25.2109C139.997 25.2109 138.455 24.3192 137.427 22.7512V31.6672H134.227V15.0956C134.274 13.9274 134.461 12.7591 134.811 11.683V11.6522L134.834 11.5601L134.858 11.4987L134.881 11.4063L134.904 11.3141L135.021 11.1911ZM86.7383 0H90.1253V24.7803H86.7383V0ZM94.7737 12.421L102.622 24.842H98.1607L90.5925 12.421L98.1374 0H102.599L94.7737 12.421ZM105.496 16.7253C105.612 19.6767 107.411 21.214 109.607 21.214C111.125 21.214 112.643 20.6606 113.951 19.6459L114.115 19.5229L115.89 22.0441L115.703 22.2287C113.928 24.0119 111.849 25.0879 109.607 25.0879C105.309 25.0879 102.202 21.1218 102.202 15.434C102.202 9.86904 105.168 5.74933 109.443 5.74933C112.34 5.74933 114.652 7.56333 115.797 11.0681C116.287 12.5748 116.428 14.9113 116.054 16.4485L116.007 16.6637L105.496 16.7253ZM121.31 16.7253C121.426 19.6767 123.225 21.214 125.421 21.214C126.939 21.214 128.457 20.6606 129.765 19.6459L129.929 19.5229L131.704 22.0441L131.517 22.2287C129.742 24.0119 127.663 25.0879 125.421 25.0879C121.123 25.0879 118.016 21.1218 118.016 15.434C118.016 9.86904 120.982 5.74933 125.257 5.74933C128.154 5.74933 130.466 7.56333 131.611 11.0681C132.101 12.5748 132.242 14.9113 131.868 16.4485L131.821 16.6637L121.31 16.7253ZM153.895 16.7253C154.012 19.6767 155.811 21.214 158.006 21.214C159.525 21.214 161.043 20.6606 162.351 19.6459L162.515 19.5229L164.29 22.0441L164.103 22.2287C162.328 24.0119 160.249 25.0879 158.006 25.0879C153.708 25.0879 150.602 21.1218 150.602 15.434C150.602 9.86904 153.568 5.74933 157.843 5.74933C160.739 5.74933 163.052 7.56333 164.197 11.0681C164.687 12.5748 164.827 14.9113 164.453 16.4485L164.407 16.6637H153.895V16.7253ZM137.427 15.4954C137.427 23.1817 145.463 22.536 145.463 15.4954C145.463 8.45481 137.427 7.8093 137.427 15.4954ZM105.682 13.3741H113.064C113.017 13.0359 112.924 12.7283 112.807 12.421C112.176 10.6686 110.915 9.71549 109.467 9.71549C107.855 9.71549 106.336 10.8529 105.799 12.9129C105.729 13.0665 105.706 13.2203 105.682 13.3741ZM121.496 13.3741H128.878C128.831 13.0359 128.738 12.7283 128.621 12.421C127.99 10.6686 126.729 9.71549 125.281 9.71549C123.669 9.71549 122.15 10.8529 121.613 12.9129C121.566 13.0665 121.52 13.2203 121.496 13.3741ZM154.082 13.3741H161.464C161.417 13.0359 161.323 12.7283 161.207 12.421C160.576 10.6686 159.314 9.71549 157.866 9.71549C156.254 9.71549 154.736 10.8529 154.199 12.9129C154.129 13.0665 154.105 13.2203 154.082 13.3741ZM170.223 8.54699C171.508 6.67162 173.306 5.84151 175.245 5.84151H175.993V10.0536H174.615C171.531 10.0536 170.27 12.8207 170.27 16.5715V24.8725H166.929V6.02611H170.2V8.54699H170.223Z" fill="white"/>
</svg>
