<svg width="28" height="16" viewBox="0 0 28 16" fill="none" xmlns="http://www.w3.org/2000/svg">
<path d="M1.32871 3.3453L13.1833 15.5607C13.3245 15.7057 13.4774 15.8087 13.642 15.8696C13.8066 15.9305 13.9831 15.9604 14.1712 15.9595C14.3594 15.9595 14.5358 15.929 14.7004 15.8681C14.8651 15.8072 15.018 15.7048 15.1591 15.5607L27.049 3.3453C27.3783 3.00699 27.543 2.5841 27.543 2.07664C27.543 1.56917 27.3666 1.1342 27.0137 0.771724C26.6609 0.409247 26.2493 0.22801 25.7789 0.22801C25.3085 0.22801 24.8968 0.409247 24.544 0.771724L14.1712 11.4285L3.79842 0.771724C3.46913 0.433413 3.06315 0.264257 2.5805 0.264257C2.09785 0.264257 1.68058 0.445495 1.32871 0.80797C0.975891 1.17045 0.799482 1.59333 0.799482 2.07664C0.799482 2.55994 0.975891 2.98282 1.32871 3.3453Z" fill="#78EAFF"/>
</svg>
