<svg width="27" height="28" viewBox="0 0 27 28" fill="none" xmlns="http://www.w3.org/2000/svg">
<path d="M25.6074 21.7843C25.6074 22.2279 25.5089 22.6838 25.2994 23.1274C25.0899 23.571 24.8188 23.9899 24.4615 24.3843C23.8577 25.0496 23.1923 25.5302 22.4406 25.8383C21.7013 26.1463 20.9004 26.3065 20.0378 26.3065C18.7809 26.3065 17.4378 26.0108 16.0208 25.407C14.6037 24.8032 13.1867 23.9899 11.7819 22.9672C10.3649 21.9321 9.02175 20.7862 7.74024 19.517C6.47106 18.2355 5.32509 16.8924 4.30235 15.4876C3.29193 14.0829 2.47866 12.6782 1.8872 11.2857C1.29573 9.88102 1 8.5379 1 7.25639C1 6.41848 1.14787 5.61754 1.4436 4.8782C1.73933 4.12655 2.20758 3.43651 2.86065 2.8204C3.64927 2.0441 4.51183 1.66211 5.42367 1.66211C5.76869 1.66211 6.11371 1.73604 6.42177 1.88391C6.74215 2.03178 7.02556 2.25358 7.24736 2.57395L10.1061 6.60331C10.3279 6.91137 10.4881 7.19478 10.599 7.46587C10.7099 7.72463 10.7715 7.9834 10.7715 8.21752C10.7715 8.51325 10.6853 8.80899 10.5127 9.0924C10.3526 9.37581 10.1184 9.67154 9.8227 9.96727L8.88621 10.9407C8.75066 11.0763 8.68905 11.2365 8.68905 11.4336C8.68905 11.5322 8.70138 11.6184 8.72602 11.717C8.76299 11.8156 8.79995 11.8895 8.8246 11.9635C9.0464 12.3701 9.42839 12.9 9.97056 13.5407C10.5251 14.1815 11.1165 14.8345 11.7573 15.4876C12.4227 16.1407 13.0634 16.7445 13.7165 17.299C14.3573 17.8412 14.8871 18.2108 15.3061 18.4326C15.3677 18.4573 15.4416 18.4942 15.5279 18.5312C15.6265 18.5682 15.725 18.5805 15.8359 18.5805C16.0454 18.5805 16.2056 18.5066 16.3411 18.371L17.2776 17.4469C17.5857 17.1388 17.8814 16.9047 18.1648 16.7568C18.4482 16.5843 18.7316 16.498 19.0397 16.498C19.2738 16.498 19.5203 16.5473 19.7914 16.6582C20.0624 16.7691 20.3459 16.9293 20.6539 17.1388L24.7326 20.0345C25.0529 20.2563 25.2747 20.5151 25.4103 20.8231C25.5335 21.1312 25.6074 21.4392 25.6074 21.7843Z" stroke="#00A657" stroke-width="1.99819" stroke-miterlimit="10"/>
<path d="M21.3323 10.2874C21.3323 9.54805 20.7532 8.41441 19.8906 7.49024C19.102 6.64001 18.0546 5.97461 17.0195 5.97461" stroke="#00A657" stroke-width="1.99819" stroke-linecap="round" stroke-linejoin="round"/>
<path d="M25.6451 10.2877C25.6451 5.51896 21.7882 1.66211 17.0195 1.66211" stroke="#00A657" stroke-width="1.99819" stroke-linecap="round" stroke-linejoin="round"/>
</svg>
