<svg width="25" height="25" viewBox="0 0 25 25" fill="none" xmlns="http://www.w3.org/2000/svg">
<path d="M12.3222 24.9725C9.88404 24.9725 7.5007 24.2492 5.4738 22.8942C3.4469 21.5391 1.86755 19.6132 0.935637 17.3602C0.00372037 15.1072 -0.238871 12.6283 0.238565 10.2374C0.716 7.84646 1.892 5.6509 3.61773 3.92859C5.34347 2.20627 7.54135 1.03463 9.93323 0.561931C12.3251 0.089235 14.8035 0.33674 17.0546 1.27312C19.3058 2.2095 21.2285 3.79267 22.5796 5.82225C23.9306 7.85183 24.6492 10.2366 24.6444 12.6747C24.6347 15.9376 23.3326 19.0636 21.0231 21.3685C18.7137 23.6734 15.585 24.9693 12.3222 24.9725ZM12.3222 2.15816C10.2481 2.15817 8.22048 2.77291 6.49559 3.92473C4.77069 5.07655 3.42588 6.71376 2.63104 8.62953C1.8362 10.5453 1.627 12.6537 2.02987 14.6883C2.43273 16.7229 3.4296 18.5925 4.89451 20.0608C6.35943 21.5291 8.22667 22.5303 10.2603 22.9379C12.294 23.3455 14.4029 23.1412 16.3205 22.3508C18.2381 21.5604 19.8784 20.2194 21.0343 18.4972C22.1901 16.775 22.8095 14.7488 22.8144 12.6747C22.816 11.2953 22.5458 9.92901 22.0194 8.65395C21.493 7.37889 20.7206 6.22 19.7463 5.24344C18.772 4.26689 17.6149 3.4918 16.3411 2.96242C15.0673 2.43305 13.7016 2.15976 12.3222 2.15816Z" fill="#00A657"/>
<path d="M15.7495 16.981C15.629 16.9837 15.5092 16.9613 15.3979 16.9151C15.2865 16.8688 15.1861 16.7999 15.1029 16.7126L11.6747 13.2966C11.503 13.1251 11.4065 12.8925 11.4062 12.65V5.80564C11.4062 5.56296 11.5027 5.33023 11.6743 5.15863C11.8459 4.98703 12.0786 4.89063 12.3213 4.89062C12.5639 4.89063 12.7967 4.98703 12.9683 5.15863C13.1399 5.33023 13.2363 5.56296 13.2363 5.80564V12.2717L16.3961 15.4194C16.5675 15.591 16.6637 15.8235 16.6637 16.066C16.6637 16.3085 16.5675 16.5411 16.3961 16.7126C16.3117 16.7982 16.2109 16.866 16.0999 16.912C15.9889 16.9581 15.8697 16.9816 15.7495 16.981Z" fill="#00A657"/>
</svg>
